<?xml version="1.0" standalone="no"?>
<!DOCTYPE svg PUBLIC "-//W3C//DTD SVG 20010904//EN"
 "http://www.w3.org/TR/2001/REC-SVG-20010904/DTD/svg10.dtd">
<svg version="1.0" xmlns="http://www.w3.org/2000/svg"
 width="97.000000pt" height="97.000000pt" viewBox="0 0 97.000000 97.000000"
 preserveAspectRatio="xMidYMid meet">
<metadata>
Created by potrace 1.14, written by Peter Selinger 2001-2017
</metadata>
<g transform="translate(0.000000,97.000000) scale(0.100000,-0.100000)"
fill="#000000" stroke="none">
<path d="M660 931 c-30 -9 -82 -34 -114 -55 l-59 -38 63 -35 c77 -42 210 -139
210 -153 0 -6 4 -10 9 -10 27 0 45 226 23 283 -14 33 -48 35 -132 8z"/>
<path d="M475 710 c-65 -27 -93 -117 -55 -178 21 -34 72 -62 112 -62 34 0 85
35 104 71 39 76 -21 180 -103 178 -21 0 -47 -4 -58 -9z"/>
<path d="M187 577 c-95 -91 -105 -117 -42 -117 19 0 37 -5 41 -11 3 -6 16 -8
28 -5 13 3 31 -1 42 -8 19 -15 44 -5 44 16 0 5 16 46 35 89 19 44 35 84 35 89
0 4 -15 11 -32 15 -18 4 -40 8 -49 11 -9 2 -49 -29 -102 -79z"/>
<path d="M537 385 c-78 -84 -79 -85 -58 -103 11 -9 28 -39 38 -67 33 -89 57
-69 127 104 l26 64 -25 44 c-14 23 -27 43 -28 43 -1 -1 -37 -39 -80 -85z"/>
<path d="M230 380 c-6 -11 -8 -24 -5 -29 8 -14 -17 -115 -31 -123 -6 -4 -15
-20 -18 -35 -4 -16 -14 -52 -23 -81 -14 -46 -14 -55 -2 -63 24 -15 32 -11 94
47 66 62 156 124 179 124 8 0 20 8 25 19 8 14 6 20 -12 28 -12 6 -59 38 -105
72 -45 33 -84 61 -87 61 -2 0 -9 -9 -15 -20z"/>
</g>
</svg>
