<svg xmlns="http://www.w3.org/2000/svg" fill="none" viewBox="0 0 24 20"><path fill="url(#a)" fill-opacity=".6" fill-rule="evenodd" d="M9.23 18.18c0-1-.82-1.82-1.84-1.82-1.03 0-1.85.81-1.85 1.82S6.36 20 7.39 20c1.02 0 1.84-.81 1.84-1.82Zm12.93 0c0-1-.82-1.82-1.85-1.82A1.82 1.82 0 1 0 20.3 20c1.03 0 1.85-.81 1.85-1.82Zm1.85-15.45c0-.5-.42-.91-.93-.91H5.76C5.6 1.14 5.6 0 4.62 0H.92C.42 0 0 .41 0 .9c0 .5.42.92.92.92h2.95L6.42 13.5c-.2.41-.88 1.5-.88 1.94 0 .5.42.91.92.91h14.78c.5 0 .92-.4.92-.9s-.42-.91-.92-.91H7.96c.15-.29.35-.59.35-.91 0-.33-.13-.69-.19-1l15.06-1.73a.92.92 0 0 0 .83-.91V2.73Z" clip-rule="evenodd"/><defs><linearGradient id="a" x1="8" x2="19" y1="4" y2="20" gradientUnits="userSpaceOnUse"><stop stop-color="#EBFF00"/><stop offset="1" stop-color="#FF70D9"/></linearGradient></defs></svg>