<svg xmlns="http://www.w3.org/2000/svg" fill="none" viewBox="0 0 106 37"><path fill="#FF70D9" d="M90.8 5.4c-2.9 0-5.7.7-8.2 2.1a13.3 13.3 0 0 0-5.4 5.8 11.2 11.2 0 0 0-.8 7.3c.6 2.5 2 4.8 4 6.5a16.3 16.3 0 0 0 16 2.8c2.7-1 5-2.6 6.6-4.7 1.6-2 2.5-4.6 2.5-7a12 12 0 0 0-4.3-9 16 16 0 0 0-10.4-3.8Zm0 20.6a10 10 0 0 1-5-1.4 7 7 0 0 1-3.3-3.5c-.7-1.4-1-3-.6-4.5s1.2-3 2.5-4a9.5 9.5 0 0 1 4.6-2.2c1.8-.3 3.6-.1 5.3.5a9 9 0 0 1 4 2.9 7 7 0 0 1 1.5 4.3c0 2.1-1 4-2.6 5.6a9.8 9.8 0 0 1-6.4 2.3ZM57.2 5.4c-3 0-5.8.7-8.2 2.1a13.3 13.3 0 0 0-5.4 5.8 11.2 11.2 0 0 0-.9 7.3c.6 2.5 2 4.8 4 6.5a16.8 16.8 0 0 0 16 2.8c2.8-1 5-2.6 6.7-4.7 1.6-2 2.5-4.6 2.5-7a12 12 0 0 0-4.4-9 16 16 0 0 0-10.3-3.8Zm0 20.6a10 10 0 0 1-4.8-1.2 8.4 8.4 0 0 1-3.3-3.1 7 7 0 0 1 .7-8.2 9 9 0 0 1 3.9-2.6 10.3 10.3 0 0 1 9.3 1.3c1.3.9 2.2 2.1 2.7 3.5h-8.5v4.9h8.5a8 8 0 0 1-3.2 3.9 10 10 0 0 1-5.3 1.5Z"/><path stroke="#FF70D9" stroke-linecap="square" stroke-linejoin="round" stroke-width="1.5" d="M33.2 29c-.7-1-1.7-1.6-3-1.4-3.4.5-1.6-2-4-1-1.9.8-3.2 3.2-3.7 4.2-.1-.6-.6-2-1.6-2.5-1.3-.7-1.7.4-2.4-.7-.7-1-.7-2.4-1.3-3.9-.6-1.4 2-3.6 3.7-2.7 1.6.8 2.6.3 3.5 1.5.8 1.2 1.8 2.8 1.8-1.5 0-4.4 2-6.3 3-6.2 1 .1 3.8-1 3.3-2s-3.3-1.5-3.3-2.4c0-1 1.2-2.9 0-3.8-1.2-1-4.3-2.8-6.7-2.6-2.3.2-3 1.2-3 2s3 2.3 1.4 3.4c-1.7 1-7 2.6-7 1 0-1.7-.3-5.1.7-5.1s1.3-2.6 2-2.5c.6 0 3.1-1 4.3-.5.3.1 1.5-.2 2.7-.7M33.2 29a17.6 17.6 0 0 0-9.5-27.4M33.1 29A17.5 17.5 0 0 1 16 35.8m0 0c.2-.7.3-1.3.6-1.7.9-1.4 4-.4 4.3-1.1.3-.7-1-1.6-2.4-2.2-1.3-.6-3.6-1.2-3.9-4.2-.3-3-1.7-2.5-2-2.9-.3-.4-4-1.5-5-3.6-1.2-2 0-5.5 0-6.4 0-.7-2.9-1.4-4.8-1.7M16 35.8A17.6 17.6 0 0 1 2.8 12m0 0A17.6 17.6 0 0 1 23.6 1.6"/></svg>